<svg version="1.1" id="Layer_1" xmlns="http://www.w3.org/2000/svg" xmlns:xlink="http://www.w3.org/1999/xlink" x="0px" y="0px"
	 width="100%" viewBox="0 0 1024 1024" enable-background="new 0 0 1024 1024" xml:space="preserve">
<path fill="#000000" opacity="1.000000" stroke="none" 
	d="
M491.576843,718.255005 
	C483.584839,718.392029 483.560333,718.293213 481.134613,710.826721 
	C470.233551,677.273071 457.653137,644.318481 445.503479,611.210815 
	C426.420135,559.209106 407.141296,507.277985 389.191772,454.868408 
	C387.847198,450.942535 386.790985,446.916199 385.659912,442.919800 
	C385.224487,441.381317 384.569061,439.951599 382.864197,439.808868 
	C380.684204,439.626465 380.206024,441.542114 379.712952,443.090698 
	C351.864777,530.559326 322.393829,617.495850 293.934174,704.763855 
	C293.316895,706.656616 292.762115,708.573059 292.264679,710.500793 
	C291.225220,714.528809 289.981995,718.066528 284.773346,718.418884 
	C279.436005,718.779907 277.946991,715.158691 276.503723,711.357361 
	C270.361206,695.179016 264.150726,679.024780 258.195892,662.777161 
	C233.979431,596.703064 209.964890,530.554810 185.649094,464.517395 
	C165.297745,409.246674 144.614059,354.097321 122.656845,299.439087 
	C118.304756,288.605408 112.973427,278.244812 105.088768,269.399933 
	C99.093254,262.674255 92.150803,257.375366 83.484283,254.675644 
	C79.127396,253.318436 77.049126,250.683456 77.770355,246.152100 
	C78.479805,241.694794 81.880363,241.641586 85.385696,241.620255 
	C131.702179,241.338150 178.018585,241.038635 224.334412,240.668671 
	C228.092819,240.638641 231.455368,240.697464 232.033844,245.486755 
	C232.539886,249.676208 230.371780,251.745529 226.638977,253.239792 
	C213.988892,258.303741 208.613480,269.411041 210.731537,283.044159 
	C213.443161,300.497711 220.171036,316.595093 226.231506,332.944824 
	C253.233994,405.791107 280.262909,478.627594 307.272034,551.471436 
	C307.957947,553.321350 308.359650,555.330200 310.198395,556.149109 
	C311.482147,556.089600 312.060028,555.507874 312.289520,554.656433 
	C322.123260,518.171021 335.374634,482.812866 347.777252,447.176697 
	C352.698975,433.035217 357.992065,419.022583 362.870575,404.866669 
	C365.373413,397.604309 366.000275,390.462891 362.957001,382.768219 
	C351.945374,354.926331 342.219269,326.577301 330.485352,299.019165 
	C325.929352,288.319031 321.021332,277.726562 313.005798,268.918518 
	C306.797943,262.096863 299.705994,256.807465 290.739838,254.390259 
	C286.214142,253.170166 285.147675,250.187881 285.724609,246.057098 
	C286.329712,241.724625 289.548492,241.663940 292.849243,241.642944 
	C340.166565,241.342041 387.483704,241.019104 434.801086,240.731064 
	C440.584564,240.695877 442.638428,242.645050 442.311951,247.368134 
	C442.109619,250.294952 440.391205,251.915756 437.874786,252.799210 
	C418.621613,259.558411 417.873657,271.794586 419.935730,286.799103 
	C422.586426,306.087097 430.736084,323.747559 437.234863,341.872467 
	C455.143829,391.819977 473.206726,441.712311 491.149323,491.647797 
	C498.685150,512.620544 506.060211,533.651062 513.548645,554.640930 
	C514.085388,556.145447 514.387268,558.209717 516.442078,558.298950 
	C518.413574,558.384460 518.424377,556.481384 518.870178,555.071106 
	C528.351807,525.077759 540.202026,495.922729 550.349304,466.165314 
	C554.326172,454.502930 558.867737,443.062622 563.412109,431.617615 
	C564.253723,429.498047 564.983337,427.403809 567.544312,427.215912 
	C570.176453,427.022827 571.271667,429.100098 572.153259,431.123199 
	C575.500793,438.805420 579.572693,446.018646 585.367615,452.164001 
	C587.458252,454.381012 587.361206,456.871063 586.315369,459.581665 
	C569.722900,502.585388 556.361328,546.721252 540.621826,590.025513 
	C525.787842,630.838318 511.083252,671.698303 496.321594,712.537415 
	C495.475830,714.877319 494.893860,717.419067 491.576843,718.255005 
z"/>
<path fill="#000000" opacity="1.000000" stroke="none" 
	d="
M889.002319,275.828705 
	C878.286072,304.916840 867.988647,333.739624 858.252197,362.760925 
	C857.831055,364.016144 857.199280,365.200439 856.670105,366.419678 
	C855.409790,369.323608 852.950256,370.025909 850.115295,369.885010 
	C847.238770,369.742004 845.436096,368.097168 844.959839,365.344147 
	C843.772888,358.483398 842.976624,351.549438 841.625061,344.723755 
	C835.884888,315.735382 824.158508,289.908569 801.271912,270.222046 
	C784.152649,255.496460 764.352173,246.973755 741.855530,244.179565 
	C710.694275,240.309189 684.550781,249.902206 663.861938,273.177032 
	C645.286804,294.073944 638.300049,318.808716 643.487488,346.448151 
	C646.169495,360.738556 656.215149,370.376251 666.807678,379.158844 
	C688.492004,397.138000 713.475037,409.885681 737.976074,423.405121 
	C767.727356,439.821625 799.059448,453.201843 828.304077,470.572296 
	C861.471619,490.272766 889.209778,515.313293 906.102478,550.769043 
	C914.031555,567.411316 918.482056,584.970459 920.477905,603.379272 
	C928.648743,678.740112 880.594604,743.315674 822.316650,771.350586 
	C796.497314,783.771179 769.399414,790.511475 740.809326,792.486084 
	C698.119568,795.434509 658.447754,784.747437 619.901245,767.813538 
	C605.760986,761.601562 591.862915,754.523010 576.397400,752.029785 
	C566.618042,750.453125 556.920471,750.654236 547.482117,754.582581 
	C533.404724,760.441589 520.763733,768.828674 507.712952,776.510681 
	C489.499756,787.231689 470.260376,795.419739 449.298553,798.841614 
	C413.467987,804.690613 381.720459,795.606628 354.114227,772.046387 
	C353.105499,771.185486 352.151398,770.224792 351.333771,769.183472 
	C349.789307,767.216431 349.135742,765.066711 350.596802,762.725098 
	C352.131134,760.266052 354.583893,760.300720 356.823456,760.962158 
	C359.023743,761.611877 361.054871,762.881042 363.107330,763.977417 
	C381.335907,773.714539 400.893738,778.415222 421.364471,776.470825 
	C469.302826,771.917480 505.525299,749.089050 527.256775,705.356873 
	C537.779846,684.180298 545.519043,661.739258 555.953979,640.499084 
	C565.214844,621.648682 576.494141,604.306030 592.402161,590.288452 
	C597.181824,586.076843 602.308105,582.422913 608.087280,579.715515 
	C608.238159,579.644836 608.389648,579.575134 608.543030,579.510071 
	C612.081543,578.008911 616.241150,577.011597 618.642761,580.295288 
	C620.973694,583.482361 619.296692,587.306702 616.612549,590.249817 
	C610.984436,596.421021 605.605347,602.772034 602.203247,610.524841 
	C595.608215,625.553772 594.245178,641.259766 596.124634,657.391602 
	C598.462646,677.460022 605.377930,695.911560 616.919617,712.376465 
	C631.365051,732.983826 651.084534,747.070435 674.149231,756.847534 
	C692.683167,764.703979 711.830078,768.940308 731.973083,767.596313 
	C766.623291,765.284485 797.034546,753.636597 819.173462,725.601746 
	C832.690613,708.484680 841.376038,689.148682 843.814270,667.078003 
	C848.376282,625.783569 832.152893,593.638428 800.558105,568.598633 
	C774.656921,548.071167 744.848389,534.059021 715.056091,520.267578 
	C686.302246,506.956757 657.905151,493.059570 631.991394,474.627594 
	C614.032104,461.853363 598.224121,446.989136 587.341736,427.501770 
	C577.525635,409.923798 572.354248,391.112885 571.532959,370.929596 
	C570.379333,342.577606 576.575134,316.123749 591.080872,291.776306 
	C607.506104,264.207001 631.362488,245.054062 660.450989,232.177124 
	C685.367859,221.146896 711.554504,216.443588 738.724548,217.833313 
	C771.981628,219.534378 803.122620,229.049713 832.528320,244.435013 
	C840.345581,248.525070 847.973022,252.980499 855.653687,257.328003 
	C859.592102,259.557312 863.674133,261.454193 868.115723,262.317535 
	C873.445984,263.353546 878.510803,262.848694 882.153381,258.171844 
	C884.386963,255.304092 887.281677,254.833267 890.124756,256.312195 
	C893.107788,257.864014 893.877747,261.020111 893.028381,264.137695 
	C891.981140,267.981506 890.470642,271.699158 889.002319,275.828705 
z"/>
</svg>